<svg xmlns="http://www.w3.org/2000/svg" width="130" height="30" viewBox="0 0 130 30" fill="none"><g clip-path="url(#a)"><path fill="url(#b)" stroke="#EBEBEB" d="M18.932 9.405c1.36-1.355 3.686-.395 3.686 1.522v17.089a2.156 2.156 0 0 1-2.16 2.096H3.364c-1.924 0-2.887-2.317-1.527-3.673L18.932 9.405Z"/><path fill="url(#c)" stroke="#EBEBEB" d="M3.97 20.769c-1.36 1.355-3.687.395-3.687-1.522V2.158A2.156 2.156 0 0 1 2.444.062h17.095c1.924 0 2.888 2.317 1.527 3.673L3.97 20.769Z"/><path fill="#191919" d="M43.808 16.956V8.484h4.107v14.754h-3.943v-2.68h-.154a4.36 4.36 0 0 1-1.668 2.084c-.771.525-1.713.788-2.825.788-.99 0-1.86-.224-2.612-.672-.752-.449-1.34-1.086-1.764-1.912-.418-.826-.63-1.815-.636-2.968V8.484h4.106v8.664c.007.87.241 1.56.704 2.065.463.506 1.083.759 1.86.759.495 0 .958-.112 1.389-.336.43-.23.778-.57 1.04-1.018.27-.449.403-1.003.396-1.662ZM51.2 28.77V8.484h4.049v2.478h.183c.18-.397.44-.8.78-1.21a4.114 4.114 0 0 1 1.35-1.038c.56-.282 1.254-.422 2.083-.422a5.58 5.58 0 0 1 2.988.845c.913.557 1.642 1.4 2.189 2.526.546 1.12.82 2.526.82 4.217 0 1.646-.267 3.035-.801 4.169-.527 1.127-1.247 1.982-2.16 2.564-.906.577-1.921.865-3.046.865-.797 0-1.475-.131-2.034-.394a4.206 4.206 0 0 1-1.36-.99 5.02 5.02 0 0 1-.809-1.22h-.125v7.897H51.2Zm4.02-12.91c0 .877.122 1.642.366 2.296.245.653.598 1.162 1.06 1.527.463.358 1.026.538 1.688.538.668 0 1.234-.183 1.696-.548.463-.371.813-.884 1.051-1.537.244-.66.367-1.418.367-2.276 0-.852-.12-1.601-.357-2.248-.238-.647-.588-1.153-1.051-1.518-.463-.365-1.031-.547-1.706-.547-.669 0-1.234.176-1.697.528-.456.352-.806.852-1.05 1.499-.245.647-.367 1.409-.367 2.286ZM72.486 3.566v19.672h-4.107V3.566h4.107Zm7.512 19.95c-.945 0-1.787-.163-2.526-.49a4.062 4.062 0 0 1-1.754-1.47c-.425-.652-.637-1.466-.637-2.439 0-.82.151-1.508.453-2.065a3.659 3.659 0 0 1 1.234-1.345 5.995 5.995 0 0 1 1.774-.768 13.57 13.57 0 0 1 2.102-.365c.861-.09 1.555-.173 2.082-.25.527-.083.91-.205 1.147-.365.238-.16.357-.397.357-.711v-.058c0-.608-.193-1.079-.578-1.412-.38-.333-.92-.5-1.62-.5-.74 0-1.327.164-1.764.49a2.262 2.262 0 0 0-.868 1.211l-3.798-.307a5.133 5.133 0 0 1 1.138-2.325c.565-.66 1.294-1.165 2.188-1.517.9-.36 1.94-.538 3.123-.538.823 0 1.61.096 2.362.288a6.19 6.19 0 0 1 2.015.893 4.345 4.345 0 0 1 1.398 1.556c.34.628.51 1.38.51 2.257v9.952h-3.894v-2.046h-.115a4.164 4.164 0 0 1-.955 1.22 4.421 4.421 0 0 1-1.436.816c-.56.192-1.205.288-1.938.288Zm1.176-2.824c.604 0 1.138-.118 1.6-.355.463-.243.826-.57 1.09-.98a2.52 2.52 0 0 0 .395-1.393V16.4a2.21 2.21 0 0 1-.53.23 9.649 9.649 0 0 1-.743.183c-.276.05-.552.099-.829.144l-.752.105c-.482.07-.903.183-1.262.337-.36.153-.64.361-.84.624-.198.256-.298.576-.298.96 0 .558.202.983.607 1.278.412.288.932.432 1.562.432Zm14.456-5.984v8.53h-4.107V8.484h3.914v2.603h.173a4.118 4.118 0 0 1 1.65-2.037c.771-.505 1.706-.758 2.805-.758 1.028 0 1.925.224 2.69.672.765.448 1.359 1.089 1.783 1.921.424.826.637 1.812.637 2.959v9.394h-4.107v-8.664c.006-.903-.225-1.608-.694-2.114-.47-.512-1.115-.768-1.938-.768-.553 0-1.041.118-1.465.355a2.48 2.48 0 0 0-.984 1.038c-.231.448-.35.99-.356 1.623Zm19.529 8.818c-1.524 0-2.835-.307-3.934-.922a6.335 6.335 0 0 1-2.526-2.632c-.591-1.14-.886-2.488-.886-4.044 0-1.518.295-2.85.886-3.996.592-1.146 1.424-2.04 2.497-2.68 1.08-.64 2.346-.96 3.799-.96a7.75 7.75 0 0 1 2.728.47 6.058 6.058 0 0 1 2.217 1.393c.636.621 1.131 1.402 1.485 2.344.353.935.531 2.03.531 3.285v1.124h-12.505v-2.536h8.638c0-.59-.128-1.111-.385-1.566a2.754 2.754 0 0 0-1.071-1.066c-.449-.263-.973-.394-1.571-.394-.623 0-1.176.144-1.658.432a3.032 3.032 0 0 0-1.118 1.143 3.224 3.224 0 0 0-.415 1.585v2.411c0 .73.135 1.361.405 1.893.276.531.665.941 1.167 1.23.501.287 1.095.431 1.783.431.456 0 .874-.064 1.253-.192.379-.128.704-.32.974-.576a2.5 2.5 0 0 0 .617-.941l3.798.25a5.16 5.16 0 0 1-1.186 2.381c-.591.673-1.356 1.198-2.294 1.576-.932.371-2.008.557-3.229.557Z"/></g><defs><linearGradient id="b" x1="22.68" x2="-1.999" y1="17.879" y2="17.879" gradientUnits="userSpaceOnUse"><stop stop-color="#2476FF"/><stop offset="1" stop-color="#0E54C9"/></linearGradient><linearGradient id="c" x1=".222" x2="24.901" y1="12.295" y2="12.295" gradientUnits="userSpaceOnUse"><stop stop-color="#2476FF"/><stop offset="1" stop-color="#0E54C9"/></linearGradient><clipPath id="a"><path fill="#fff" d="M0 0h130v30H0z"/></clipPath></defs></svg>